<?xml version="1.0" encoding="UTF-8"?>
<svg xmlns="http://www.w3.org/2000/svg" width="827" height="1169" viewBox="0 0 827 1169" font-family="Arial, Helvetica, sans-serif">
<rect x="0" y="0" width="827" height="1169" fill="#FFFFFF" stroke="none"/>
<text x="413.5" y="28" text-anchor="middle" font-size="16" font-weight="bold" fill="#000000">Hình 3.11 — BĐHĐ Nhận phân tích thói quen từ AI</text>
<defs>
    <marker id="arr" viewBox="0 0 10 10" refX="9" refY="5" markerWidth="8" markerHeight="8" orient="auto-start-reverse">
      <path d="M 0 0 L 10 5 L 0 10 z" fill="#000000"/>
    </marker>
    <marker id="oar" viewBox="0 0 10 10" refX="9" refY="5" markerWidth="9" markerHeight="9" orient="auto-start-reverse">
      <path d="M 0 0 L 10 5 L 0 10" fill="none" stroke="#000000" stroke-width="1.2"/>
    </marker>
    <marker id="oarG" viewBox="0 0 10 10" refX="9" refY="5" markerWidth="9" markerHeight="9" orient="auto-start-reverse">
      <path d="M 0 0 L 10 5 L 0 10" fill="none" stroke="#666666" stroke-width="1.2"/>
    </marker>
  </defs>
<rect x="40" y="60" width="747" height="36" rx="0" ry="0" fill="#F0F0F0" stroke="#000000" stroke-width="1.5" /><line x1="413.5" y1="60" x2="413.5" y2="96" stroke="#000000" stroke-width="1.5"  /><text x="226.75" y="83" text-anchor="middle" font-size="12" font-weight="bold" font-style="normal" fill="#000000">Người dùng</text><text x="600.25" y="83" text-anchor="middle" font-size="12" font-weight="bold" font-style="normal" fill="#000000">Hệ thống</text><rect x="40" y="60" width="747" height="1059" rx="0" ry="0" fill="none" stroke="#000000" stroke-width="1.5" /><line x1="413.5" y1="96" x2="413.5" y2="1119" stroke="#000000" stroke-width="1.5"  /><circle cx="226.75" cy="130" r="9" fill="#000000" stroke="#000000"/><rect x="116.75" y="177" width="220" height="46" rx="14" ry="14" fill="none" stroke="#000000" stroke-width="1.5" />
<text x="226.75" y="204" text-anchor="middle" font-size="11" font-weight="normal" font-style="normal" fill="#000000">Mở Insights / Trang AI</text><rect x="116.75" y="257" width="220" height="46" rx="14" ry="14" fill="none" stroke="#000000" stroke-width="1.5" />
<text x="226.75" y="284" text-anchor="middle" font-size="11" font-weight="normal" font-style="normal" fill="#000000">Nhấn "Phân tích thói quen"</text><rect x="490.25" y="347" width="220" height="46" rx="14" ry="14" fill="none" stroke="#000000" stroke-width="1.5" />
<text x="600.25" y="374" text-anchor="middle" font-size="11" font-weight="normal" font-style="normal" fill="#000000">Gom log 7-30 ngày</text><rect x="490.25" y="427" width="220" height="46" rx="14" ry="14" fill="none" stroke="#000000" stroke-width="1.5" />
<text x="600.25" y="447" text-anchor="middle" font-size="11" font-weight="normal" font-style="normal" fill="#000000">Tính tổng quan: streak, %</text>
<text x="600.25" y="461" text-anchor="middle" font-size="11" font-weight="normal" font-style="normal" fill="#000000">hoàn thành theo nhóm</text><rect x="490.25" y="517" width="220" height="46" rx="14" ry="14" fill="none" stroke="#000000" stroke-width="1.5" />
<text x="600.25" y="544" text-anchor="middle" font-size="11" font-weight="normal" font-style="normal" fill="#000000">AiChatRouter prompt category=ANALYSIS</text><rect x="490.25" y="607" width="220" height="46" rx="14" ry="14" fill="none" stroke="#000000" stroke-width="1.5" />
<text x="600.25" y="634" text-anchor="middle" font-size="11" font-weight="normal" font-style="normal" fill="#000000">Lưu ai_cache 24h</text><rect x="490.25" y="697" width="220" height="46" rx="14" ry="14" fill="none" stroke="#000000" stroke-width="1.5" />
<text x="600.25" y="724" text-anchor="middle" font-size="11" font-weight="normal" font-style="normal" fill="#000000">Render kết quả + biểu đồ</text><circle cx="600.25" cy="810" r="11" fill="none" stroke="#000000" stroke-width="1.5"/><circle cx="600.25" cy="810" r="6" fill="#000000"/><line x1="226.75" y1="139" x2="226.75" y2="175" stroke="#000000" stroke-width="1.4" marker-end="url(#arr)"/>
<line x1="226.75" y1="225" x2="226.75" y2="255" stroke="#000000" stroke-width="1.4" marker-end="url(#arr)"/>
<polyline points="326.75,280 413.5,280 413.5,370 500.25,370" fill="none" stroke="#000000" stroke-width="1.4" marker-end="url(#arr)"/><line x1="600.25" y1="395" x2="600.25" y2="425" stroke="#000000" stroke-width="1.4" marker-end="url(#arr)"/>
<line x1="600.25" y1="475" x2="600.25" y2="515" stroke="#000000" stroke-width="1.4" marker-end="url(#arr)"/>
<line x1="600.25" y1="565" x2="600.25" y2="605" stroke="#000000" stroke-width="1.4" marker-end="url(#arr)"/>
<line x1="600.25" y1="655" x2="600.25" y2="695" stroke="#000000" stroke-width="1.4" marker-end="url(#arr)"/>
<line x1="600.25" y1="745" x2="600.25" y2="799" stroke="#000000" stroke-width="1.4" marker-end="url(#arr)"/>
</svg>
