<?xml version="1.0" encoding="UTF-8"?>
<svg xmlns="http://www.w3.org/2000/svg" width="1100" height="1169" viewBox="0 0 1100 1169" font-family="Arial, Helvetica, sans-serif">
<rect x="0" y="0" width="1100" height="1169" fill="#FFFFFF" stroke="none"/>
<text x="550" y="28" text-anchor="middle" font-size="16" font-weight="bold" fill="#000000">Hình 3.3 — BĐTT Xem danh sách thói quen</text>
<defs>
    <marker id="arr" viewBox="0 0 10 10" refX="9" refY="5" markerWidth="8" markerHeight="8" orient="auto-start-reverse">
      <path d="M 0 0 L 10 5 L 0 10 z" fill="#000000"/>
    </marker>
    <marker id="oar" viewBox="0 0 10 10" refX="9" refY="5" markerWidth="9" markerHeight="9" orient="auto-start-reverse">
      <path d="M 0 0 L 10 5 L 0 10" fill="none" stroke="#000000" stroke-width="1.2"/>
    </marker>
    <marker id="oarG" viewBox="0 0 10 10" refX="9" refY="5" markerWidth="9" markerHeight="9" orient="auto-start-reverse">
      <path d="M 0 0 L 10 5 L 0 10" fill="none" stroke="#666666" stroke-width="1.2"/>
    </marker>
  </defs>
<g transform="translate(83,88)"><circle cx="7" cy="6" r="5" fill="none" stroke="#000000" stroke-width="1.2"/><line x1="7" y1="11" x2="7" y2="24" stroke="#000000" stroke-width="1.2"/><line x1="0" y1="17" x2="14" y2="17" stroke="#000000" stroke-width="1.2"/><line x1="7" y1="24" x2="0" y2="34" stroke="#000000" stroke-width="1.2"/><line x1="7" y1="24" x2="14" y2="34" stroke="#000000" stroke-width="1.2"/></g>
<rect x="35" y="120" width="110" height="50" rx="0" ry="0" fill="#F0F0F0" stroke="#000000" stroke-width="1.5" />
<text x="90" y="149" text-anchor="middle" font-size="11" font-weight="bold" font-style="normal" fill="#000000">Người dùng</text>
<line x1="90" y1="170" x2="90" y2="1099" stroke="#000000" stroke-width="1.2" stroke-dasharray="6 4"/><g transform="translate(382.6666666666667,98)"><line x1="0" y1="0" x2="0" y2="20" stroke="#000000" stroke-width="1.4"/><line x1="0" y1="10" x2="8" y2="10" stroke="#000000" stroke-width="1.4"/><circle cx="16" cy="10" r="8" fill="none" stroke="#000000" stroke-width="1.4"/></g>
<rect x="341.6666666666667" y="120" width="110" height="50" rx="0" ry="0" fill="#F0F0F0" stroke="#000000" stroke-width="1.5" />
<text x="396.6666666666667" y="149" text-anchor="middle" font-size="11" font-weight="bold" font-style="normal" fill="#000000">GD_ThoiQuen</text>
<line x1="396.6666666666667" y1="170" x2="396.6666666666667" y2="1099" stroke="#000000" stroke-width="1.2" stroke-dasharray="6 4"/><g transform="translate(693.3333333333334,98)"><circle cx="10" cy="10" r="9" fill="none" stroke="#000000" stroke-width="1.4"/><polygon points="14,2 18,4 14,6" fill="#000000"/></g>
<rect x="648.3333333333334" y="120" width="110" height="50" rx="0" ry="0" fill="#F0F0F0" stroke="#000000" stroke-width="1.5" />
<text x="703.3333333333334" y="149" text-anchor="middle" font-size="11" font-weight="bold" font-style="normal" fill="#000000">Ctrl_ThoiQuen</text>
<line x1="703.3333333333334" y1="170" x2="703.3333333333334" y2="1099" stroke="#000000" stroke-width="1.2" stroke-dasharray="6 4"/><g transform="translate(1001,98)"><circle cx="9" cy="9" r="9" fill="none" stroke="#000000" stroke-width="1.4"/><line x1="0" y1="20" x2="18" y2="20" stroke="#000000" stroke-width="1.4"/></g>
<rect x="955" y="120" width="110" height="50" rx="0" ry="0" fill="#F0F0F0" stroke="#000000" stroke-width="1.5" />
<text x="1010" y="149" text-anchor="middle" font-size="11" font-weight="bold" font-style="normal" fill="#000000">E_ThoiQuen</text>
<line x1="1010" y1="170" x2="1010" y2="1099" stroke="#000000" stroke-width="1.2" stroke-dasharray="6 4"/><line x1="90" y1="230" x2="396.6666666666667" y2="230" stroke="#000000" stroke-width="1.4"  marker-end="url(#arr)"/>
<text x="243.33333333333334" y="224" text-anchor="middle" font-size="10" font-weight="normal" font-style="normal" fill="#000000">1. Vào tab Thói quen</text><line x1="396.6666666666667" y1="270" x2="703.3333333333334" y2="270" stroke="#000000" stroke-width="1.4"  marker-end="url(#arr)"/>
<text x="550" y="264" text-anchor="middle" font-size="10" font-weight="normal" font-style="normal" fill="#000000">2. loadHabits()</text><line x1="703.3333333333334" y1="310" x2="1010" y2="310" stroke="#000000" stroke-width="1.4"  marker-end="url(#arr)"/>
<text x="856.6666666666667" y="304" text-anchor="middle" font-size="10" font-weight="normal" font-style="normal" fill="#000000">3. selectAll(userId)</text><line x1="1010" y1="350" x2="703.3333333333334" y2="350" stroke="#000000" stroke-width="1.4" stroke-dasharray="5 4" marker-end="url(#oar)"/>
<text x="856.6666666666667" y="344" text-anchor="middle" font-size="10" font-weight="normal" font-style="italic" fill="#000000">4. List&lt;Habit&gt;</text><line x1="703.3333333333334" y1="390" x2="1010" y2="390" stroke="#000000" stroke-width="1.4"  marker-end="url(#arr)"/>
<text x="856.6666666666667" y="384" text-anchor="middle" font-size="10" font-weight="normal" font-style="normal" fill="#000000">5. selectTodayLogs()</text><line x1="1010" y1="430" x2="703.3333333333334" y2="430" stroke="#000000" stroke-width="1.4" stroke-dasharray="5 4" marker-end="url(#oar)"/>
<text x="856.6666666666667" y="424" text-anchor="middle" font-size="10" font-weight="normal" font-style="italic" fill="#000000">6. List&lt;HabitLog&gt;</text><line x1="703.3333333333334" y1="470" x2="396.6666666666667" y2="470" stroke="#000000" stroke-width="1.4" stroke-dasharray="5 4" marker-end="url(#oar)"/>
<text x="550" y="464" text-anchor="middle" font-size="10" font-weight="normal" font-style="italic" fill="#000000">7. render(state)</text><line x1="396.6666666666667" y1="510" x2="90" y2="510" stroke="#000000" stroke-width="1.4" stroke-dasharray="5 4" marker-end="url(#oar)"/>
<text x="243.33333333333334" y="504" text-anchor="middle" font-size="10" font-weight="normal" font-style="italic" fill="#000000">8. Hiển thị danh sách</text></svg>
